<svg xmlns="http://www.w3.org/2000/svg" width="96" height="96" viewBox="0 0 96 96" shape-rendering="crispEdges">
  <rect width="96" height="96" fill="none"/>
  <path fill="#171a16" d="M32 12h32v4h12v8h8v12h4v24h-4v12h-8v8H64v4H32v-4H20v-8h-8V60H8V36h4V24h8v-8h12z"/>
  <path fill="#dd4a34" d="M32 16h32v4h12v8h4v8h4v8H12v-8h4v-8h4v-8h12z"/>
  <path fill="#f1ede2" d="M12 52h72v8h-4v12h-8v4H60v4H36v-4H24v-4h-8V60h-4z"/>
  <path fill="#171a16" d="M8 44h28v-4h24v4h28v8H60v4H36v-4H8z"/>
  <path fill="#f1ede2" d="M40 40h16v4h4v12h-4v4H40v-4h-4V44h4z"/>
  <path fill="#74776e" d="M44 44h8v4h4v4h-4v4h-8v-4h-4v-4h4z"/>
</svg>
